M48
INCH,TZ
T1C0.024
T2C0.031
T3C0.039
T4C0.040
%
G90
G05
T1
X60500Y-46500
X60500Y-47500
X61000Y-47000
X62500Y-46500
X62500Y-47500
X63000Y-47000
X64500Y-46500
X64500Y-47500
X65000Y-47000
T2
X61000Y-42000
X61000Y-43000
X61000Y-44000
X61000Y-45000
X64000Y-42000
X64000Y-43000
X64000Y-44000
X64000Y-45000
T3
X60500Y-49016
X60500Y-50985
X62500Y-49016
X62500Y-50985
X64500Y-49016
X64500Y-50985
T4
X58500Y-42000
X58500Y-43000
X58500Y-44000
X58500Y-45000
X58500Y-46000
X58500Y-47000
X58500Y-48000
X58500Y-49500
X58500Y-50500
X66500Y-42000
X66500Y-43000
X66500Y-44000
X66500Y-45500
X66500Y-46500
X66500Y-47500
T0
M30
