G04 #@! TF.FileFunction,Copper,L2,Bot,Signal*
%FSLAX46Y46*%
G04 Gerber Fmt 4.6, Leading zero omitted, Abs format (unit mm)*
G04 Created by KiCad (PCBNEW 4.0.1-stable) date Tuesday, December 29, 2015 'PMt' 07:02:28 PM*
%MOMM*%
G01*
G04 APERTURE LIST*
%ADD10C,0.100000*%
%ADD11C,1.000760*%
%ADD12O,2.300000X1.600000*%
%ADD13C,1.998980*%
%ADD14R,2.032000X1.727200*%
%ADD15O,2.032000X1.727200*%
%ADD16R,2.032000X2.032000*%
%ADD17O,2.032000X2.032000*%
%ADD18C,0.250000*%
%ADD19C,0.254000*%
G04 APERTURE END LIST*
D10*
D11*
X154940000Y-119380000D03*
X153670000Y-120650000D03*
X153670000Y-118110000D03*
D12*
X162560000Y-114300000D03*
X162560000Y-111760000D03*
X162560000Y-109220000D03*
X162560000Y-106680000D03*
X154940000Y-106680000D03*
X154940000Y-109220000D03*
X154940000Y-111760000D03*
X154940000Y-114300000D03*
D13*
X153670000Y-124500640D03*
X153670000Y-129501900D03*
D14*
X168910000Y-106680000D03*
D15*
X168910000Y-109220000D03*
X168910000Y-111760000D03*
D14*
X168910000Y-115570000D03*
D15*
X168910000Y-118110000D03*
X168910000Y-120650000D03*
D11*
X160020000Y-119380000D03*
X158750000Y-120650000D03*
X158750000Y-118110000D03*
X165100000Y-119380000D03*
X163830000Y-120650000D03*
X163830000Y-118110000D03*
D13*
X158750000Y-124500640D03*
X158750000Y-129501900D03*
X163830000Y-124500640D03*
X163830000Y-129501900D03*
D16*
X148590000Y-128270000D03*
D17*
X148590000Y-125730000D03*
D14*
X148590000Y-121920000D03*
D15*
X148590000Y-119380000D03*
X148590000Y-116840000D03*
X148590000Y-114300000D03*
X148590000Y-111760000D03*
X148590000Y-109220000D03*
X148590000Y-106680000D03*
D18*
X154940000Y-119380000D02*
X154940000Y-123190000D01*
X154940000Y-123230640D02*
X153670000Y-124500640D01*
X154940000Y-123190000D02*
X154940000Y-123230640D01*
X153670000Y-118110000D02*
X154940000Y-116840000D01*
X154940000Y-116840000D02*
X154940000Y-114300000D01*
X153631900Y-129540000D02*
X153670000Y-129501900D01*
X163830000Y-129501900D02*
X163791900Y-129540000D01*
X168910000Y-106680000D02*
X167640000Y-106680000D01*
X160020000Y-116840000D02*
X158750000Y-118110000D01*
X162560000Y-116840000D02*
X160020000Y-116840000D01*
X166370000Y-113030000D02*
X162560000Y-116840000D01*
X166370000Y-107950000D02*
X166370000Y-113030000D01*
X167640000Y-106680000D02*
X166370000Y-107950000D01*
X163830000Y-118110000D02*
X166370000Y-115570000D01*
X166370000Y-115570000D02*
X168910000Y-115570000D01*
X160020000Y-119380000D02*
X160020000Y-123190000D01*
X160020000Y-123230640D02*
X158750000Y-124500640D01*
X160020000Y-123190000D02*
X160020000Y-123230640D01*
X165100000Y-119380000D02*
X165100000Y-123190000D01*
X165100000Y-123230640D02*
X163830000Y-124500640D01*
X165100000Y-123190000D02*
X165100000Y-123230640D01*
D19*
G36*
X173863000Y-132640000D02*
X143637000Y-132640000D01*
X143637000Y-128555750D01*
X146939000Y-128555750D01*
X146939000Y-129412310D01*
X147035673Y-129645699D01*
X147214302Y-129824327D01*
X147447691Y-129921000D01*
X148304250Y-129921000D01*
X148463000Y-129762250D01*
X148463000Y-128397000D01*
X148717000Y-128397000D01*
X148717000Y-129762250D01*
X148875750Y-129921000D01*
X149732309Y-129921000D01*
X149962639Y-129825594D01*
X152035226Y-129825594D01*
X152283538Y-130426555D01*
X152742927Y-130886746D01*
X153343453Y-131136106D01*
X153993694Y-131136674D01*
X154594655Y-130888362D01*
X155054846Y-130428973D01*
X155304206Y-129828447D01*
X155304208Y-129825594D01*
X157115226Y-129825594D01*
X157363538Y-130426555D01*
X157822927Y-130886746D01*
X158423453Y-131136106D01*
X159073694Y-131136674D01*
X159674655Y-130888362D01*
X160134846Y-130428973D01*
X160384206Y-129828447D01*
X160384208Y-129825594D01*
X162195226Y-129825594D01*
X162443538Y-130426555D01*
X162902927Y-130886746D01*
X163503453Y-131136106D01*
X164153694Y-131136674D01*
X164754655Y-130888362D01*
X165214846Y-130428973D01*
X165464206Y-129828447D01*
X165464774Y-129178206D01*
X165216462Y-128577245D01*
X164757073Y-128117054D01*
X164156547Y-127867694D01*
X163506306Y-127867126D01*
X162905345Y-128115438D01*
X162445154Y-128574827D01*
X162195794Y-129175353D01*
X162195226Y-129825594D01*
X160384208Y-129825594D01*
X160384774Y-129178206D01*
X160136462Y-128577245D01*
X159677073Y-128117054D01*
X159076547Y-127867694D01*
X158426306Y-127867126D01*
X157825345Y-128115438D01*
X157365154Y-128574827D01*
X157115794Y-129175353D01*
X157115226Y-129825594D01*
X155304208Y-129825594D01*
X155304774Y-129178206D01*
X155056462Y-128577245D01*
X154597073Y-128117054D01*
X153996547Y-127867694D01*
X153346306Y-127867126D01*
X152745345Y-128115438D01*
X152285154Y-128574827D01*
X152035794Y-129175353D01*
X152035226Y-129825594D01*
X149962639Y-129825594D01*
X149965698Y-129824327D01*
X150144327Y-129645699D01*
X150241000Y-129412310D01*
X150241000Y-128555750D01*
X150082250Y-128397000D01*
X148717000Y-128397000D01*
X148463000Y-128397000D01*
X147097750Y-128397000D01*
X146939000Y-128555750D01*
X143637000Y-128555750D01*
X143637000Y-125730000D01*
X146906655Y-125730000D01*
X147032330Y-126361810D01*
X147256966Y-126698001D01*
X147214302Y-126715673D01*
X147035673Y-126894301D01*
X146939000Y-127127690D01*
X146939000Y-127984250D01*
X147097750Y-128143000D01*
X148463000Y-128143000D01*
X148463000Y-128123000D01*
X148717000Y-128123000D01*
X148717000Y-128143000D01*
X150082250Y-128143000D01*
X150241000Y-127984250D01*
X150241000Y-127127690D01*
X150144327Y-126894301D01*
X149965698Y-126715673D01*
X149923034Y-126698001D01*
X150147670Y-126361810D01*
X150273345Y-125730000D01*
X150147670Y-125098190D01*
X149964686Y-124824334D01*
X152035226Y-124824334D01*
X152283538Y-125425295D01*
X152742927Y-125885486D01*
X153343453Y-126134846D01*
X153993694Y-126135414D01*
X154594655Y-125887102D01*
X155054846Y-125427713D01*
X155304206Y-124827187D01*
X155304208Y-124824334D01*
X157115226Y-124824334D01*
X157363538Y-125425295D01*
X157822927Y-125885486D01*
X158423453Y-126134846D01*
X159073694Y-126135414D01*
X159674655Y-125887102D01*
X160134846Y-125427713D01*
X160384206Y-124827187D01*
X160384774Y-124176946D01*
X160315691Y-124009751D01*
X160557401Y-123768041D01*
X160722148Y-123521480D01*
X160780000Y-123230640D01*
X160780000Y-120225595D01*
X160981967Y-120023981D01*
X161155182Y-119606832D01*
X161155576Y-119155150D01*
X160983089Y-118737699D01*
X160663981Y-118418033D01*
X160246832Y-118244818D01*
X159885263Y-118244503D01*
X159885433Y-118049369D01*
X160334802Y-117600000D01*
X162560000Y-117600000D01*
X162835124Y-117545274D01*
X162694818Y-117883168D01*
X162694424Y-118334850D01*
X162866911Y-118752301D01*
X163186019Y-119071967D01*
X163603168Y-119245182D01*
X163964737Y-119245497D01*
X163964503Y-119514737D01*
X163605150Y-119514424D01*
X163187699Y-119686911D01*
X162868033Y-120006019D01*
X162694818Y-120423168D01*
X162694424Y-120874850D01*
X162866911Y-121292301D01*
X163186019Y-121611967D01*
X163603168Y-121785182D01*
X164054850Y-121785576D01*
X164340000Y-121667755D01*
X164340000Y-122915838D01*
X164321083Y-122934755D01*
X164156547Y-122866434D01*
X163506306Y-122865866D01*
X162905345Y-123114178D01*
X162445154Y-123573567D01*
X162195794Y-124174093D01*
X162195226Y-124824334D01*
X162443538Y-125425295D01*
X162902927Y-125885486D01*
X163503453Y-126134846D01*
X164153694Y-126135414D01*
X164754655Y-125887102D01*
X165214846Y-125427713D01*
X165464206Y-124827187D01*
X165464774Y-124176946D01*
X165395691Y-124009751D01*
X165637401Y-123768041D01*
X165802148Y-123521480D01*
X165860000Y-123230640D01*
X165860000Y-121009026D01*
X167302642Y-121009026D01*
X167305291Y-121024791D01*
X167559268Y-121552036D01*
X167995680Y-121941954D01*
X168548087Y-122135184D01*
X168783000Y-121990924D01*
X168783000Y-120777000D01*
X169037000Y-120777000D01*
X169037000Y-121990924D01*
X169271913Y-122135184D01*
X169824320Y-121941954D01*
X170260732Y-121552036D01*
X170514709Y-121024791D01*
X170517358Y-121009026D01*
X170396217Y-120777000D01*
X169037000Y-120777000D01*
X168783000Y-120777000D01*
X167423783Y-120777000D01*
X167302642Y-121009026D01*
X165860000Y-121009026D01*
X165860000Y-120225595D01*
X166061967Y-120023981D01*
X166235182Y-119606832D01*
X166235576Y-119155150D01*
X166063089Y-118737699D01*
X165743981Y-118418033D01*
X165326832Y-118244818D01*
X164965263Y-118244503D01*
X164965433Y-118049369D01*
X166684802Y-116330000D01*
X167246560Y-116330000D01*
X167246560Y-116433600D01*
X167290838Y-116668917D01*
X167429910Y-116885041D01*
X167642110Y-117030031D01*
X167683439Y-117038400D01*
X167665585Y-117050330D01*
X167340729Y-117536511D01*
X167226655Y-118110000D01*
X167340729Y-118683489D01*
X167665585Y-119169670D01*
X167975069Y-119376461D01*
X167559268Y-119747964D01*
X167305291Y-120275209D01*
X167302642Y-120290974D01*
X167423783Y-120523000D01*
X168783000Y-120523000D01*
X168783000Y-120503000D01*
X169037000Y-120503000D01*
X169037000Y-120523000D01*
X170396217Y-120523000D01*
X170517358Y-120290974D01*
X170514709Y-120275209D01*
X170260732Y-119747964D01*
X169844931Y-119376461D01*
X170154415Y-119169670D01*
X170479271Y-118683489D01*
X170593345Y-118110000D01*
X170479271Y-117536511D01*
X170154415Y-117050330D01*
X170140087Y-117040757D01*
X170161317Y-117036762D01*
X170377441Y-116897690D01*
X170522431Y-116685490D01*
X170573440Y-116433600D01*
X170573440Y-114706400D01*
X170529162Y-114471083D01*
X170390090Y-114254959D01*
X170177890Y-114109969D01*
X169926000Y-114058960D01*
X167894000Y-114058960D01*
X167658683Y-114103238D01*
X167442559Y-114242310D01*
X167297569Y-114454510D01*
X167246560Y-114706400D01*
X167246560Y-114810000D01*
X166370000Y-114810000D01*
X166127414Y-114858254D01*
X166079160Y-114867852D01*
X165832599Y-115032599D01*
X163890525Y-116974673D01*
X163605150Y-116974424D01*
X163426605Y-117048197D01*
X166907401Y-113567401D01*
X167072148Y-113320839D01*
X167130000Y-113030000D01*
X167130000Y-112119026D01*
X167302642Y-112119026D01*
X167305291Y-112134791D01*
X167559268Y-112662036D01*
X167995680Y-113051954D01*
X168548087Y-113245184D01*
X168783000Y-113100924D01*
X168783000Y-111887000D01*
X169037000Y-111887000D01*
X169037000Y-113100924D01*
X169271913Y-113245184D01*
X169824320Y-113051954D01*
X170260732Y-112662036D01*
X170514709Y-112134791D01*
X170517358Y-112119026D01*
X170396217Y-111887000D01*
X169037000Y-111887000D01*
X168783000Y-111887000D01*
X167423783Y-111887000D01*
X167302642Y-112119026D01*
X167130000Y-112119026D01*
X167130000Y-108264802D01*
X167418106Y-107976696D01*
X167429910Y-107995041D01*
X167642110Y-108140031D01*
X167683439Y-108148400D01*
X167665585Y-108160330D01*
X167340729Y-108646511D01*
X167226655Y-109220000D01*
X167340729Y-109793489D01*
X167665585Y-110279670D01*
X167975069Y-110486461D01*
X167559268Y-110857964D01*
X167305291Y-111385209D01*
X167302642Y-111400974D01*
X167423783Y-111633000D01*
X168783000Y-111633000D01*
X168783000Y-111613000D01*
X169037000Y-111613000D01*
X169037000Y-111633000D01*
X170396217Y-111633000D01*
X170517358Y-111400974D01*
X170514709Y-111385209D01*
X170260732Y-110857964D01*
X169844931Y-110486461D01*
X170154415Y-110279670D01*
X170479271Y-109793489D01*
X170593345Y-109220000D01*
X170479271Y-108646511D01*
X170154415Y-108160330D01*
X170140087Y-108150757D01*
X170161317Y-108146762D01*
X170377441Y-108007690D01*
X170522431Y-107795490D01*
X170573440Y-107543600D01*
X170573440Y-105816400D01*
X170529162Y-105581083D01*
X170390090Y-105364959D01*
X170177890Y-105219969D01*
X169926000Y-105168960D01*
X167894000Y-105168960D01*
X167658683Y-105213238D01*
X167442559Y-105352310D01*
X167297569Y-105564510D01*
X167246560Y-105816400D01*
X167246560Y-106046407D01*
X167102599Y-106142599D01*
X165832599Y-107412599D01*
X165667852Y-107659161D01*
X165610000Y-107950000D01*
X165610000Y-112715198D01*
X164321110Y-114004088D01*
X164270737Y-113750849D01*
X163959668Y-113285302D01*
X163577582Y-113030000D01*
X163959668Y-112774698D01*
X164270737Y-112309151D01*
X164379970Y-111760000D01*
X164270737Y-111210849D01*
X163959668Y-110745302D01*
X163577582Y-110490000D01*
X163959668Y-110234698D01*
X164270737Y-109769151D01*
X164379970Y-109220000D01*
X164270737Y-108670849D01*
X163959668Y-108205302D01*
X163581849Y-107952851D01*
X164014500Y-107604896D01*
X164284367Y-107111819D01*
X164301904Y-107029039D01*
X164179915Y-106807000D01*
X162687000Y-106807000D01*
X162687000Y-106827000D01*
X162433000Y-106827000D01*
X162433000Y-106807000D01*
X160940085Y-106807000D01*
X160818096Y-107029039D01*
X160835633Y-107111819D01*
X161105500Y-107604896D01*
X161538151Y-107952851D01*
X161160332Y-108205302D01*
X160849263Y-108670849D01*
X160740030Y-109220000D01*
X160849263Y-109769151D01*
X161160332Y-110234698D01*
X161542418Y-110490000D01*
X161160332Y-110745302D01*
X160849263Y-111210849D01*
X160740030Y-111760000D01*
X160849263Y-112309151D01*
X161160332Y-112774698D01*
X161542418Y-113030000D01*
X161160332Y-113285302D01*
X160849263Y-113750849D01*
X160740030Y-114300000D01*
X160849263Y-114849151D01*
X161160332Y-115314698D01*
X161625879Y-115625767D01*
X162175030Y-115735000D01*
X162590198Y-115735000D01*
X162245198Y-116080000D01*
X160020000Y-116080000D01*
X159729160Y-116137852D01*
X159482599Y-116302599D01*
X158810525Y-116974673D01*
X158525150Y-116974424D01*
X158107699Y-117146911D01*
X157788033Y-117466019D01*
X157614818Y-117883168D01*
X157614424Y-118334850D01*
X157786911Y-118752301D01*
X158106019Y-119071967D01*
X158523168Y-119245182D01*
X158884737Y-119245497D01*
X158884503Y-119514737D01*
X158525150Y-119514424D01*
X158107699Y-119686911D01*
X157788033Y-120006019D01*
X157614818Y-120423168D01*
X157614424Y-120874850D01*
X157786911Y-121292301D01*
X158106019Y-121611967D01*
X158523168Y-121785182D01*
X158974850Y-121785576D01*
X159260000Y-121667755D01*
X159260000Y-122915838D01*
X159241083Y-122934755D01*
X159076547Y-122866434D01*
X158426306Y-122865866D01*
X157825345Y-123114178D01*
X157365154Y-123573567D01*
X157115794Y-124174093D01*
X157115226Y-124824334D01*
X155304208Y-124824334D01*
X155304774Y-124176946D01*
X155235691Y-124009751D01*
X155477401Y-123768041D01*
X155642148Y-123521480D01*
X155700000Y-123230640D01*
X155700000Y-120225595D01*
X155901967Y-120023981D01*
X156075182Y-119606832D01*
X156075576Y-119155150D01*
X155903089Y-118737699D01*
X155583981Y-118418033D01*
X155166832Y-118244818D01*
X154805263Y-118244503D01*
X154805433Y-118049369D01*
X155477401Y-117377401D01*
X155642148Y-117130840D01*
X155700000Y-116840000D01*
X155700000Y-115660402D01*
X155874121Y-115625767D01*
X156339668Y-115314698D01*
X156650737Y-114849151D01*
X156759970Y-114300000D01*
X156650737Y-113750849D01*
X156339668Y-113285302D01*
X155957582Y-113030000D01*
X156339668Y-112774698D01*
X156650737Y-112309151D01*
X156759970Y-111760000D01*
X156650737Y-111210849D01*
X156339668Y-110745302D01*
X155957582Y-110490000D01*
X156339668Y-110234698D01*
X156650737Y-109769151D01*
X156759970Y-109220000D01*
X156650737Y-108670849D01*
X156339668Y-108205302D01*
X155957582Y-107950000D01*
X156339668Y-107694698D01*
X156650737Y-107229151D01*
X156759970Y-106680000D01*
X156690542Y-106330961D01*
X160818096Y-106330961D01*
X160940085Y-106553000D01*
X162433000Y-106553000D01*
X162433000Y-105245000D01*
X162687000Y-105245000D01*
X162687000Y-106553000D01*
X164179915Y-106553000D01*
X164301904Y-106330961D01*
X164284367Y-106248181D01*
X164014500Y-105755104D01*
X163576483Y-105402834D01*
X163037000Y-105245000D01*
X162687000Y-105245000D01*
X162433000Y-105245000D01*
X162083000Y-105245000D01*
X161543517Y-105402834D01*
X161105500Y-105755104D01*
X160835633Y-106248181D01*
X160818096Y-106330961D01*
X156690542Y-106330961D01*
X156650737Y-106130849D01*
X156339668Y-105665302D01*
X155874121Y-105354233D01*
X155324970Y-105245000D01*
X154555030Y-105245000D01*
X154005879Y-105354233D01*
X153540332Y-105665302D01*
X153229263Y-106130849D01*
X153120030Y-106680000D01*
X153229263Y-107229151D01*
X153540332Y-107694698D01*
X153922418Y-107950000D01*
X153540332Y-108205302D01*
X153229263Y-108670849D01*
X153120030Y-109220000D01*
X153229263Y-109769151D01*
X153540332Y-110234698D01*
X153922418Y-110490000D01*
X153540332Y-110745302D01*
X153229263Y-111210849D01*
X153120030Y-111760000D01*
X153229263Y-112309151D01*
X153540332Y-112774698D01*
X153922418Y-113030000D01*
X153540332Y-113285302D01*
X153229263Y-113750849D01*
X153120030Y-114300000D01*
X153229263Y-114849151D01*
X153540332Y-115314698D01*
X154005879Y-115625767D01*
X154180000Y-115660402D01*
X154180000Y-116525198D01*
X153730525Y-116974673D01*
X153445150Y-116974424D01*
X153027699Y-117146911D01*
X152708033Y-117466019D01*
X152534818Y-117883168D01*
X152534424Y-118334850D01*
X152706911Y-118752301D01*
X153026019Y-119071967D01*
X153443168Y-119245182D01*
X153804737Y-119245497D01*
X153804503Y-119514737D01*
X153445150Y-119514424D01*
X153027699Y-119686911D01*
X152708033Y-120006019D01*
X152534818Y-120423168D01*
X152534424Y-120874850D01*
X152706911Y-121292301D01*
X153026019Y-121611967D01*
X153443168Y-121785182D01*
X153894850Y-121785576D01*
X154180000Y-121667755D01*
X154180000Y-122915838D01*
X154161083Y-122934755D01*
X153996547Y-122866434D01*
X153346306Y-122865866D01*
X152745345Y-123114178D01*
X152285154Y-123573567D01*
X152035794Y-124174093D01*
X152035226Y-124824334D01*
X149964686Y-124824334D01*
X149789778Y-124562567D01*
X149254155Y-124204675D01*
X148622345Y-124079000D01*
X148557655Y-124079000D01*
X147925845Y-124204675D01*
X147390222Y-124562567D01*
X147032330Y-125098190D01*
X146906655Y-125730000D01*
X143637000Y-125730000D01*
X143637000Y-106680000D01*
X146906655Y-106680000D01*
X147020729Y-107253489D01*
X147345585Y-107739670D01*
X147660366Y-107950000D01*
X147345585Y-108160330D01*
X147020729Y-108646511D01*
X146906655Y-109220000D01*
X147020729Y-109793489D01*
X147345585Y-110279670D01*
X147660366Y-110490000D01*
X147345585Y-110700330D01*
X147020729Y-111186511D01*
X146906655Y-111760000D01*
X147020729Y-112333489D01*
X147345585Y-112819670D01*
X147660366Y-113030000D01*
X147345585Y-113240330D01*
X147020729Y-113726511D01*
X146906655Y-114300000D01*
X147020729Y-114873489D01*
X147345585Y-115359670D01*
X147660366Y-115570000D01*
X147345585Y-115780330D01*
X147020729Y-116266511D01*
X146906655Y-116840000D01*
X147020729Y-117413489D01*
X147345585Y-117899670D01*
X147660366Y-118110000D01*
X147345585Y-118320330D01*
X147020729Y-118806511D01*
X146906655Y-119380000D01*
X147020729Y-119953489D01*
X147345585Y-120439670D01*
X147359913Y-120449243D01*
X147338683Y-120453238D01*
X147122559Y-120592310D01*
X146977569Y-120804510D01*
X146926560Y-121056400D01*
X146926560Y-122783600D01*
X146970838Y-123018917D01*
X147109910Y-123235041D01*
X147322110Y-123380031D01*
X147574000Y-123431040D01*
X149606000Y-123431040D01*
X149841317Y-123386762D01*
X150057441Y-123247690D01*
X150202431Y-123035490D01*
X150253440Y-122783600D01*
X150253440Y-121056400D01*
X150209162Y-120821083D01*
X150070090Y-120604959D01*
X149857890Y-120459969D01*
X149816561Y-120451600D01*
X149834415Y-120439670D01*
X150159271Y-119953489D01*
X150273345Y-119380000D01*
X150159271Y-118806511D01*
X149834415Y-118320330D01*
X149519634Y-118110000D01*
X149834415Y-117899670D01*
X150159271Y-117413489D01*
X150273345Y-116840000D01*
X150159271Y-116266511D01*
X149834415Y-115780330D01*
X149519634Y-115570000D01*
X149834415Y-115359670D01*
X150159271Y-114873489D01*
X150273345Y-114300000D01*
X150159271Y-113726511D01*
X149834415Y-113240330D01*
X149519634Y-113030000D01*
X149834415Y-112819670D01*
X150159271Y-112333489D01*
X150273345Y-111760000D01*
X150159271Y-111186511D01*
X149834415Y-110700330D01*
X149519634Y-110490000D01*
X149834415Y-110279670D01*
X150159271Y-109793489D01*
X150273345Y-109220000D01*
X150159271Y-108646511D01*
X149834415Y-108160330D01*
X149519634Y-107950000D01*
X149834415Y-107739670D01*
X150159271Y-107253489D01*
X150273345Y-106680000D01*
X150159271Y-106106511D01*
X149834415Y-105620330D01*
X149348234Y-105295474D01*
X148774745Y-105181400D01*
X148405255Y-105181400D01*
X147831766Y-105295474D01*
X147345585Y-105620330D01*
X147020729Y-106106511D01*
X146906655Y-106680000D01*
X143637000Y-106680000D01*
X143637000Y-103580000D01*
X173863000Y-103580000D01*
X173863000Y-132640000D01*
X173863000Y-132640000D01*
G37*
X173863000Y-132640000D02*
X143637000Y-132640000D01*
X143637000Y-128555750D01*
X146939000Y-128555750D01*
X146939000Y-129412310D01*
X147035673Y-129645699D01*
X147214302Y-129824327D01*
X147447691Y-129921000D01*
X148304250Y-129921000D01*
X148463000Y-129762250D01*
X148463000Y-128397000D01*
X148717000Y-128397000D01*
X148717000Y-129762250D01*
X148875750Y-129921000D01*
X149732309Y-129921000D01*
X149962639Y-129825594D01*
X152035226Y-129825594D01*
X152283538Y-130426555D01*
X152742927Y-130886746D01*
X153343453Y-131136106D01*
X153993694Y-131136674D01*
X154594655Y-130888362D01*
X155054846Y-130428973D01*
X155304206Y-129828447D01*
X155304208Y-129825594D01*
X157115226Y-129825594D01*
X157363538Y-130426555D01*
X157822927Y-130886746D01*
X158423453Y-131136106D01*
X159073694Y-131136674D01*
X159674655Y-130888362D01*
X160134846Y-130428973D01*
X160384206Y-129828447D01*
X160384208Y-129825594D01*
X162195226Y-129825594D01*
X162443538Y-130426555D01*
X162902927Y-130886746D01*
X163503453Y-131136106D01*
X164153694Y-131136674D01*
X164754655Y-130888362D01*
X165214846Y-130428973D01*
X165464206Y-129828447D01*
X165464774Y-129178206D01*
X165216462Y-128577245D01*
X164757073Y-128117054D01*
X164156547Y-127867694D01*
X163506306Y-127867126D01*
X162905345Y-128115438D01*
X162445154Y-128574827D01*
X162195794Y-129175353D01*
X162195226Y-129825594D01*
X160384208Y-129825594D01*
X160384774Y-129178206D01*
X160136462Y-128577245D01*
X159677073Y-128117054D01*
X159076547Y-127867694D01*
X158426306Y-127867126D01*
X157825345Y-128115438D01*
X157365154Y-128574827D01*
X157115794Y-129175353D01*
X157115226Y-129825594D01*
X155304208Y-129825594D01*
X155304774Y-129178206D01*
X155056462Y-128577245D01*
X154597073Y-128117054D01*
X153996547Y-127867694D01*
X153346306Y-127867126D01*
X152745345Y-128115438D01*
X152285154Y-128574827D01*
X152035794Y-129175353D01*
X152035226Y-129825594D01*
X149962639Y-129825594D01*
X149965698Y-129824327D01*
X150144327Y-129645699D01*
X150241000Y-129412310D01*
X150241000Y-128555750D01*
X150082250Y-128397000D01*
X148717000Y-128397000D01*
X148463000Y-128397000D01*
X147097750Y-128397000D01*
X146939000Y-128555750D01*
X143637000Y-128555750D01*
X143637000Y-125730000D01*
X146906655Y-125730000D01*
X147032330Y-126361810D01*
X147256966Y-126698001D01*
X147214302Y-126715673D01*
X147035673Y-126894301D01*
X146939000Y-127127690D01*
X146939000Y-127984250D01*
X147097750Y-128143000D01*
X148463000Y-128143000D01*
X148463000Y-128123000D01*
X148717000Y-128123000D01*
X148717000Y-128143000D01*
X150082250Y-128143000D01*
X150241000Y-127984250D01*
X150241000Y-127127690D01*
X150144327Y-126894301D01*
X149965698Y-126715673D01*
X149923034Y-126698001D01*
X150147670Y-126361810D01*
X150273345Y-125730000D01*
X150147670Y-125098190D01*
X149964686Y-124824334D01*
X152035226Y-124824334D01*
X152283538Y-125425295D01*
X152742927Y-125885486D01*
X153343453Y-126134846D01*
X153993694Y-126135414D01*
X154594655Y-125887102D01*
X155054846Y-125427713D01*
X155304206Y-124827187D01*
X155304208Y-124824334D01*
X157115226Y-124824334D01*
X157363538Y-125425295D01*
X157822927Y-125885486D01*
X158423453Y-126134846D01*
X159073694Y-126135414D01*
X159674655Y-125887102D01*
X160134846Y-125427713D01*
X160384206Y-124827187D01*
X160384774Y-124176946D01*
X160315691Y-124009751D01*
X160557401Y-123768041D01*
X160722148Y-123521480D01*
X160780000Y-123230640D01*
X160780000Y-120225595D01*
X160981967Y-120023981D01*
X161155182Y-119606832D01*
X161155576Y-119155150D01*
X160983089Y-118737699D01*
X160663981Y-118418033D01*
X160246832Y-118244818D01*
X159885263Y-118244503D01*
X159885433Y-118049369D01*
X160334802Y-117600000D01*
X162560000Y-117600000D01*
X162835124Y-117545274D01*
X162694818Y-117883168D01*
X162694424Y-118334850D01*
X162866911Y-118752301D01*
X163186019Y-119071967D01*
X163603168Y-119245182D01*
X163964737Y-119245497D01*
X163964503Y-119514737D01*
X163605150Y-119514424D01*
X163187699Y-119686911D01*
X162868033Y-120006019D01*
X162694818Y-120423168D01*
X162694424Y-120874850D01*
X162866911Y-121292301D01*
X163186019Y-121611967D01*
X163603168Y-121785182D01*
X164054850Y-121785576D01*
X164340000Y-121667755D01*
X164340000Y-122915838D01*
X164321083Y-122934755D01*
X164156547Y-122866434D01*
X163506306Y-122865866D01*
X162905345Y-123114178D01*
X162445154Y-123573567D01*
X162195794Y-124174093D01*
X162195226Y-124824334D01*
X162443538Y-125425295D01*
X162902927Y-125885486D01*
X163503453Y-126134846D01*
X164153694Y-126135414D01*
X164754655Y-125887102D01*
X165214846Y-125427713D01*
X165464206Y-124827187D01*
X165464774Y-124176946D01*
X165395691Y-124009751D01*
X165637401Y-123768041D01*
X165802148Y-123521480D01*
X165860000Y-123230640D01*
X165860000Y-121009026D01*
X167302642Y-121009026D01*
X167305291Y-121024791D01*
X167559268Y-121552036D01*
X167995680Y-121941954D01*
X168548087Y-122135184D01*
X168783000Y-121990924D01*
X168783000Y-120777000D01*
X169037000Y-120777000D01*
X169037000Y-121990924D01*
X169271913Y-122135184D01*
X169824320Y-121941954D01*
X170260732Y-121552036D01*
X170514709Y-121024791D01*
X170517358Y-121009026D01*
X170396217Y-120777000D01*
X169037000Y-120777000D01*
X168783000Y-120777000D01*
X167423783Y-120777000D01*
X167302642Y-121009026D01*
X165860000Y-121009026D01*
X165860000Y-120225595D01*
X166061967Y-120023981D01*
X166235182Y-119606832D01*
X166235576Y-119155150D01*
X166063089Y-118737699D01*
X165743981Y-118418033D01*
X165326832Y-118244818D01*
X164965263Y-118244503D01*
X164965433Y-118049369D01*
X166684802Y-116330000D01*
X167246560Y-116330000D01*
X167246560Y-116433600D01*
X167290838Y-116668917D01*
X167429910Y-116885041D01*
X167642110Y-117030031D01*
X167683439Y-117038400D01*
X167665585Y-117050330D01*
X167340729Y-117536511D01*
X167226655Y-118110000D01*
X167340729Y-118683489D01*
X167665585Y-119169670D01*
X167975069Y-119376461D01*
X167559268Y-119747964D01*
X167305291Y-120275209D01*
X167302642Y-120290974D01*
X167423783Y-120523000D01*
X168783000Y-120523000D01*
X168783000Y-120503000D01*
X169037000Y-120503000D01*
X169037000Y-120523000D01*
X170396217Y-120523000D01*
X170517358Y-120290974D01*
X170514709Y-120275209D01*
X170260732Y-119747964D01*
X169844931Y-119376461D01*
X170154415Y-119169670D01*
X170479271Y-118683489D01*
X170593345Y-118110000D01*
X170479271Y-117536511D01*
X170154415Y-117050330D01*
X170140087Y-117040757D01*
X170161317Y-117036762D01*
X170377441Y-116897690D01*
X170522431Y-116685490D01*
X170573440Y-116433600D01*
X170573440Y-114706400D01*
X170529162Y-114471083D01*
X170390090Y-114254959D01*
X170177890Y-114109969D01*
X169926000Y-114058960D01*
X167894000Y-114058960D01*
X167658683Y-114103238D01*
X167442559Y-114242310D01*
X167297569Y-114454510D01*
X167246560Y-114706400D01*
X167246560Y-114810000D01*
X166370000Y-114810000D01*
X166127414Y-114858254D01*
X166079160Y-114867852D01*
X165832599Y-115032599D01*
X163890525Y-116974673D01*
X163605150Y-116974424D01*
X163426605Y-117048197D01*
X166907401Y-113567401D01*
X167072148Y-113320839D01*
X167130000Y-113030000D01*
X167130000Y-112119026D01*
X167302642Y-112119026D01*
X167305291Y-112134791D01*
X167559268Y-112662036D01*
X167995680Y-113051954D01*
X168548087Y-113245184D01*
X168783000Y-113100924D01*
X168783000Y-111887000D01*
X169037000Y-111887000D01*
X169037000Y-113100924D01*
X169271913Y-113245184D01*
X169824320Y-113051954D01*
X170260732Y-112662036D01*
X170514709Y-112134791D01*
X170517358Y-112119026D01*
X170396217Y-111887000D01*
X169037000Y-111887000D01*
X168783000Y-111887000D01*
X167423783Y-111887000D01*
X167302642Y-112119026D01*
X167130000Y-112119026D01*
X167130000Y-108264802D01*
X167418106Y-107976696D01*
X167429910Y-107995041D01*
X167642110Y-108140031D01*
X167683439Y-108148400D01*
X167665585Y-108160330D01*
X167340729Y-108646511D01*
X167226655Y-109220000D01*
X167340729Y-109793489D01*
X167665585Y-110279670D01*
X167975069Y-110486461D01*
X167559268Y-110857964D01*
X167305291Y-111385209D01*
X167302642Y-111400974D01*
X167423783Y-111633000D01*
X168783000Y-111633000D01*
X168783000Y-111613000D01*
X169037000Y-111613000D01*
X169037000Y-111633000D01*
X170396217Y-111633000D01*
X170517358Y-111400974D01*
X170514709Y-111385209D01*
X170260732Y-110857964D01*
X169844931Y-110486461D01*
X170154415Y-110279670D01*
X170479271Y-109793489D01*
X170593345Y-109220000D01*
X170479271Y-108646511D01*
X170154415Y-108160330D01*
X170140087Y-108150757D01*
X170161317Y-108146762D01*
X170377441Y-108007690D01*
X170522431Y-107795490D01*
X170573440Y-107543600D01*
X170573440Y-105816400D01*
X170529162Y-105581083D01*
X170390090Y-105364959D01*
X170177890Y-105219969D01*
X169926000Y-105168960D01*
X167894000Y-105168960D01*
X167658683Y-105213238D01*
X167442559Y-105352310D01*
X167297569Y-105564510D01*
X167246560Y-105816400D01*
X167246560Y-106046407D01*
X167102599Y-106142599D01*
X165832599Y-107412599D01*
X165667852Y-107659161D01*
X165610000Y-107950000D01*
X165610000Y-112715198D01*
X164321110Y-114004088D01*
X164270737Y-113750849D01*
X163959668Y-113285302D01*
X163577582Y-113030000D01*
X163959668Y-112774698D01*
X164270737Y-112309151D01*
X164379970Y-111760000D01*
X164270737Y-111210849D01*
X163959668Y-110745302D01*
X163577582Y-110490000D01*
X163959668Y-110234698D01*
X164270737Y-109769151D01*
X164379970Y-109220000D01*
X164270737Y-108670849D01*
X163959668Y-108205302D01*
X163581849Y-107952851D01*
X164014500Y-107604896D01*
X164284367Y-107111819D01*
X164301904Y-107029039D01*
X164179915Y-106807000D01*
X162687000Y-106807000D01*
X162687000Y-106827000D01*
X162433000Y-106827000D01*
X162433000Y-106807000D01*
X160940085Y-106807000D01*
X160818096Y-107029039D01*
X160835633Y-107111819D01*
X161105500Y-107604896D01*
X161538151Y-107952851D01*
X161160332Y-108205302D01*
X160849263Y-108670849D01*
X160740030Y-109220000D01*
X160849263Y-109769151D01*
X161160332Y-110234698D01*
X161542418Y-110490000D01*
X161160332Y-110745302D01*
X160849263Y-111210849D01*
X160740030Y-111760000D01*
X160849263Y-112309151D01*
X161160332Y-112774698D01*
X161542418Y-113030000D01*
X161160332Y-113285302D01*
X160849263Y-113750849D01*
X160740030Y-114300000D01*
X160849263Y-114849151D01*
X161160332Y-115314698D01*
X161625879Y-115625767D01*
X162175030Y-115735000D01*
X162590198Y-115735000D01*
X162245198Y-116080000D01*
X160020000Y-116080000D01*
X159729160Y-116137852D01*
X159482599Y-116302599D01*
X158810525Y-116974673D01*
X158525150Y-116974424D01*
X158107699Y-117146911D01*
X157788033Y-117466019D01*
X157614818Y-117883168D01*
X157614424Y-118334850D01*
X157786911Y-118752301D01*
X158106019Y-119071967D01*
X158523168Y-119245182D01*
X158884737Y-119245497D01*
X158884503Y-119514737D01*
X158525150Y-119514424D01*
X158107699Y-119686911D01*
X157788033Y-120006019D01*
X157614818Y-120423168D01*
X157614424Y-120874850D01*
X157786911Y-121292301D01*
X158106019Y-121611967D01*
X158523168Y-121785182D01*
X158974850Y-121785576D01*
X159260000Y-121667755D01*
X159260000Y-122915838D01*
X159241083Y-122934755D01*
X159076547Y-122866434D01*
X158426306Y-122865866D01*
X157825345Y-123114178D01*
X157365154Y-123573567D01*
X157115794Y-124174093D01*
X157115226Y-124824334D01*
X155304208Y-124824334D01*
X155304774Y-124176946D01*
X155235691Y-124009751D01*
X155477401Y-123768041D01*
X155642148Y-123521480D01*
X155700000Y-123230640D01*
X155700000Y-120225595D01*
X155901967Y-120023981D01*
X156075182Y-119606832D01*
X156075576Y-119155150D01*
X155903089Y-118737699D01*
X155583981Y-118418033D01*
X155166832Y-118244818D01*
X154805263Y-118244503D01*
X154805433Y-118049369D01*
X155477401Y-117377401D01*
X155642148Y-117130840D01*
X155700000Y-116840000D01*
X155700000Y-115660402D01*
X155874121Y-115625767D01*
X156339668Y-115314698D01*
X156650737Y-114849151D01*
X156759970Y-114300000D01*
X156650737Y-113750849D01*
X156339668Y-113285302D01*
X155957582Y-113030000D01*
X156339668Y-112774698D01*
X156650737Y-112309151D01*
X156759970Y-111760000D01*
X156650737Y-111210849D01*
X156339668Y-110745302D01*
X155957582Y-110490000D01*
X156339668Y-110234698D01*
X156650737Y-109769151D01*
X156759970Y-109220000D01*
X156650737Y-108670849D01*
X156339668Y-108205302D01*
X155957582Y-107950000D01*
X156339668Y-107694698D01*
X156650737Y-107229151D01*
X156759970Y-106680000D01*
X156690542Y-106330961D01*
X160818096Y-106330961D01*
X160940085Y-106553000D01*
X162433000Y-106553000D01*
X162433000Y-105245000D01*
X162687000Y-105245000D01*
X162687000Y-106553000D01*
X164179915Y-106553000D01*
X164301904Y-106330961D01*
X164284367Y-106248181D01*
X164014500Y-105755104D01*
X163576483Y-105402834D01*
X163037000Y-105245000D01*
X162687000Y-105245000D01*
X162433000Y-105245000D01*
X162083000Y-105245000D01*
X161543517Y-105402834D01*
X161105500Y-105755104D01*
X160835633Y-106248181D01*
X160818096Y-106330961D01*
X156690542Y-106330961D01*
X156650737Y-106130849D01*
X156339668Y-105665302D01*
X155874121Y-105354233D01*
X155324970Y-105245000D01*
X154555030Y-105245000D01*
X154005879Y-105354233D01*
X153540332Y-105665302D01*
X153229263Y-106130849D01*
X153120030Y-106680000D01*
X153229263Y-107229151D01*
X153540332Y-107694698D01*
X153922418Y-107950000D01*
X153540332Y-108205302D01*
X153229263Y-108670849D01*
X153120030Y-109220000D01*
X153229263Y-109769151D01*
X153540332Y-110234698D01*
X153922418Y-110490000D01*
X153540332Y-110745302D01*
X153229263Y-111210849D01*
X153120030Y-111760000D01*
X153229263Y-112309151D01*
X153540332Y-112774698D01*
X153922418Y-113030000D01*
X153540332Y-113285302D01*
X153229263Y-113750849D01*
X153120030Y-114300000D01*
X153229263Y-114849151D01*
X153540332Y-115314698D01*
X154005879Y-115625767D01*
X154180000Y-115660402D01*
X154180000Y-116525198D01*
X153730525Y-116974673D01*
X153445150Y-116974424D01*
X153027699Y-117146911D01*
X152708033Y-117466019D01*
X152534818Y-117883168D01*
X152534424Y-118334850D01*
X152706911Y-118752301D01*
X153026019Y-119071967D01*
X153443168Y-119245182D01*
X153804737Y-119245497D01*
X153804503Y-119514737D01*
X153445150Y-119514424D01*
X153027699Y-119686911D01*
X152708033Y-120006019D01*
X152534818Y-120423168D01*
X152534424Y-120874850D01*
X152706911Y-121292301D01*
X153026019Y-121611967D01*
X153443168Y-121785182D01*
X153894850Y-121785576D01*
X154180000Y-121667755D01*
X154180000Y-122915838D01*
X154161083Y-122934755D01*
X153996547Y-122866434D01*
X153346306Y-122865866D01*
X152745345Y-123114178D01*
X152285154Y-123573567D01*
X152035794Y-124174093D01*
X152035226Y-124824334D01*
X149964686Y-124824334D01*
X149789778Y-124562567D01*
X149254155Y-124204675D01*
X148622345Y-124079000D01*
X148557655Y-124079000D01*
X147925845Y-124204675D01*
X147390222Y-124562567D01*
X147032330Y-125098190D01*
X146906655Y-125730000D01*
X143637000Y-125730000D01*
X143637000Y-106680000D01*
X146906655Y-106680000D01*
X147020729Y-107253489D01*
X147345585Y-107739670D01*
X147660366Y-107950000D01*
X147345585Y-108160330D01*
X147020729Y-108646511D01*
X146906655Y-109220000D01*
X147020729Y-109793489D01*
X147345585Y-110279670D01*
X147660366Y-110490000D01*
X147345585Y-110700330D01*
X147020729Y-111186511D01*
X146906655Y-111760000D01*
X147020729Y-112333489D01*
X147345585Y-112819670D01*
X147660366Y-113030000D01*
X147345585Y-113240330D01*
X147020729Y-113726511D01*
X146906655Y-114300000D01*
X147020729Y-114873489D01*
X147345585Y-115359670D01*
X147660366Y-115570000D01*
X147345585Y-115780330D01*
X147020729Y-116266511D01*
X146906655Y-116840000D01*
X147020729Y-117413489D01*
X147345585Y-117899670D01*
X147660366Y-118110000D01*
X147345585Y-118320330D01*
X147020729Y-118806511D01*
X146906655Y-119380000D01*
X147020729Y-119953489D01*
X147345585Y-120439670D01*
X147359913Y-120449243D01*
X147338683Y-120453238D01*
X147122559Y-120592310D01*
X146977569Y-120804510D01*
X146926560Y-121056400D01*
X146926560Y-122783600D01*
X146970838Y-123018917D01*
X147109910Y-123235041D01*
X147322110Y-123380031D01*
X147574000Y-123431040D01*
X149606000Y-123431040D01*
X149841317Y-123386762D01*
X150057441Y-123247690D01*
X150202431Y-123035490D01*
X150253440Y-122783600D01*
X150253440Y-121056400D01*
X150209162Y-120821083D01*
X150070090Y-120604959D01*
X149857890Y-120459969D01*
X149816561Y-120451600D01*
X149834415Y-120439670D01*
X150159271Y-119953489D01*
X150273345Y-119380000D01*
X150159271Y-118806511D01*
X149834415Y-118320330D01*
X149519634Y-118110000D01*
X149834415Y-117899670D01*
X150159271Y-117413489D01*
X150273345Y-116840000D01*
X150159271Y-116266511D01*
X149834415Y-115780330D01*
X149519634Y-115570000D01*
X149834415Y-115359670D01*
X150159271Y-114873489D01*
X150273345Y-114300000D01*
X150159271Y-113726511D01*
X149834415Y-113240330D01*
X149519634Y-113030000D01*
X149834415Y-112819670D01*
X150159271Y-112333489D01*
X150273345Y-111760000D01*
X150159271Y-111186511D01*
X149834415Y-110700330D01*
X149519634Y-110490000D01*
X149834415Y-110279670D01*
X150159271Y-109793489D01*
X150273345Y-109220000D01*
X150159271Y-108646511D01*
X149834415Y-108160330D01*
X149519634Y-107950000D01*
X149834415Y-107739670D01*
X150159271Y-107253489D01*
X150273345Y-106680000D01*
X150159271Y-106106511D01*
X149834415Y-105620330D01*
X149348234Y-105295474D01*
X148774745Y-105181400D01*
X148405255Y-105181400D01*
X147831766Y-105295474D01*
X147345585Y-105620330D01*
X147020729Y-106106511D01*
X146906655Y-106680000D01*
X143637000Y-106680000D01*
X143637000Y-103580000D01*
X173863000Y-103580000D01*
X173863000Y-132640000D01*
M02*
